Patient4_TMGait_0pt8_01_right_49_EMG.mot
version=1
nRows=33
nColumns=33
inDegrees=no
endheader
time	1LAddLong	2LGlutMax	3LGlutMed	4LIliopsoas	5LSemiMemb	6LBicFemLong	7LRecFem	8LVastMed	9LVastLat	10LGasMed	11LTibAnt	12lTibPost	13LPeroneusLong	14LSol	15LExtDigLong	16LFlexDigLong	17RAddLong	18RGlutMax	19RGlutMed	20RIliopsoas	21RSemiMemb	22RBicFemLong	23RRecFem	24RVastMed	25RVastLat	26RGasMed	27RTibAnt	28RTibPost	29RPeroneusLong	30RSol	31RExtDigLong	32RFlexDigLong
55.17	-0.000916	-0.05661	-0.11688	-0.005798	0.051117	-0.1033	0.22263	-0.014038	0.053558	0.10025	0.009613	0.042114	-0.14664	0.007782	0.11231	-0.005341	-0.002289	0.23407	0.25803	0.088196	0.059814	0.063019	0.12405	-0.07782	-0.007477	-0.001984	-0.017242	0.002441	-0.18616	-0.046844	-0.001984	0.002441
55.171	-0.012817	-0.028839	-0.087128	0.005188	0.017853	-0.078278	0.22873	0.000153	0.009918	-0.030212	0.005798	0.032196	0.15671	-0.1001	0.009308	-0.006256	-0.02655	0.16632	0.46967	0.018311	0.061493	0.074005	0.070801	-0.073395	-0.002136	-0.012817	-0.041809	-0.005493	0.091705	0.006256	0.002594	0.001373
55.172	-0.006561	0.007935	-0.065613	0.007324	0.023346	-0.079346	0.27756	0.001678	-0.028381	-0.010681	0.016937	0.041504	0.096893	-0.18662	0.009918	-0.024567	-0.06134	0.1413	0.65292	-0.039825	0.069427	0.084534	-0.028992	-0.059052	0.014954	-0.011139	-0.065002	0.000916	0.05722	-0.018311	-0.007324	-0.000153
55.173	-0.006866	0.022583	-0.047455	0.012054	0.040283	-0.037537	0.3035	-0.001831	-0.066223	0.14862	0.018463	0.031128	-0.18066	-0.14603	0.045319	-0.003052	-0.056152	0.1355	0.91156	-0.17181	0.065308	0.085297	0.000153	0.003357	-0.004883	-0.015106	-0.012512	0.00061	0.008698	-0.02121	-0.002594	0.018158
55.174	-0.007477	0.009155	-0.028381	0.007477	0.058289	0.004272	0.29053	-0.002136	-0.072937	0.24429	0.023804	0.032806	-0.29404	-0.04837	0.063171	-0.01297	-0.048065	0.094757	0.65155	-0.21179	0.053558	0.037994	0.05722	-0.049286	-0.015411	-0.008087	-0.003052	0.001221	0.055695	-0.06134	-0.002594	0.016479
55.175	-0.008545	-0.011597	-0.11383	-0.002136	0.032959	0.026398	0.28488	0	-0.03479	0.30945	0.018463	0.035553	-0.24323	-0.029907	0.023956	-0.024567	-0.026855	0.093536	0.36896	-0.3067	0.042419	-0.013428	0.098419	-0.023346	-0.031586	-0.011749	0.09491	-0.00061	-0.070038	-0.049591	-0.001526	0.016632
55.176	-0.004425	-0.018921	-0.14938	0.015411	0.000153	-0.021057	0.27603	0.011139	0.036163	0.25787	0.014191	0.020599	-0.10162	0.028229	0.027313	-0.076141	0.028534	0.070496	0.66223	-0.19821	0.033875	-0.041199	0.12192	-0.098724	-0.03891	-0.0177	0.17044	-0.001068	-0.48416	-0.03479	-0.002747	0.018005
55.177	0.000153	-0.030975	-0.18188	0.019531	0.027008	-0.064697	0.23758	0.00885	0.23956	0.003815	0.00946	0.023041	0.05661	0.040436	0.043488	0.029602	0.12039	0.037842	0.72311	0.071106	0.018616	-0.053101	0.16098	-0.14313	-0.056915	-0.019379	0.26321	0.006866	-0.72693	-0.046539	0.003967	0.017548
55.178	-0.000305	0.012817	-0.20004	0.012512	0.042267	-0.076294	0.27435	0.00351	0.30273	-0.13458	-0.00946	0.022888	0.054474	0.029907	0.031433	-0.005951	0.12405	0.015564	0.57358	0.30228	-0.005798	-0.05249	0.14374	-0.19409	-0.055542	-0.015259	0.30838	0.000458	-0.43167	-0.092926	-0.000763	0.02594
55.179	-0.006714	0.007629	-0.13275	-0.006714	0.040283	0.00412	0.31326	0.001526	0.14191	-0.17548	-0.009766	0.017242	-0.21774	-0.043182	-0.011902	-0.11505	0.070038	0.054626	0.71365	0.26459	-0.018921	-0.058136	0.15106	-0.16266	-0.041351	-0.00885	0.22934	0.000763	0.27725	-0.086365	-0.002747	0.03479
55.18	-0.011292	0.025024	-0.05188	0.008698	0.038605	0.0177	0.39291	-0.006256	0.12039	-0.1326	-0.008392	0.028076	0.41672	-0.1683	-0.010376	0.21164	0.048523	0.052185	0.62363	0.13062	-0.021515	-0.054321	0.15472	-0.18417	-0.039978	-0.012817	0.21408	-0.001068	0.71854	-0.075989	-0.004578	0.027161
55.181	-0.010986	0.010529	0.042572	-0.013275	0.019836	0.014954	0.36926	-0.002441	0.1564	0.10681	0.002289	0.036163	0.47379	-0.18524	0.016632	0.091553	0.052185	0.05661	0.78079	-0.004578	-0.037079	-0.073853	0.14954	-0.15182	-0.031738	-0.001068	0.27985	-0.005341	1.2329	-0.071564	-0.006714	0.028992
55.182	-0.007935	-0.03952	-0.008392	0.003967	0.024719	-0.013123	0.38361	0.00412	0.12177	0.24963	0.017242	0.054016	0.17792	-0.005341	0.027466	-0.12375	0.037994	0.020905	0.92773	-0.02243	-0.036163	-0.062103	0.16998	-0.15213	-0.018311	-0.00473	0.24033	0.000458	0.88791	-0.10757	-0.002289	0.025024
55.183	-0.003052	-0.11215	-0.079346	0.001068	0.025177	0.003052	0.33752	0.01236	0.062256	0.1088	0.014801	0.04303	-0.26688	0.15533	-0.0177	-0.037994	-0.015411	0.006866	0.88242	0.018005	-0.0354	-0.055237	0.14862	-0.10727	-0.02121	-0.002747	0.15488	-0.000153	0.43945	-0.012817	-0.001831	0.024719
55.184	-0.006104	-0.15381	-0.11841	0.010223	0.020294	0.022888	0.28336	0.021057	0.0177	-0.14175	-0.035553	0.051575	-0.11154	0.15518	-0.052185	-0.005646	-0.004272	-0.018616	1.0857	0.017395	-0.018616	-0.014496	0.18829	-0.095215	-0.02243	-0.016327	0.079346	-0.000763	-0.35446	0.044403	-0.003357	0.008087
55.185	-0.004425	-0.16678	-0.02121	0.006104	0.010986	-0.012665	0.23514	0.023804	0.027161	-0.18234	-0.074921	0.048981	-0.43152	0.28976	-0.039673	0.002899	-0.014496	0.02243	1.1099	0.08255	0.03418	0.04776	0.16144	-0.00885	0.011444	-0.007935	-0.25055	-0.001221	-0.31052	-0.19714	-0.005493	-0.002899
55.186	0.007019	-0.18265	-0.048828	0.005493	0.018158	-0.054169	0.12909	0.019989	0.071869	-0.18936	-0.13473	0.031891	0.25467	0.062103	-0.062256	0.002289	-0.039368	-0.010681	0.89768	0.09552	0.03006	0.077057	0.070801	-0.01236	-0.007172	0.001373	-0.65414	0.000153	-0.49972	-0.15106	0.001221	-0.004578
55.187	-0.000763	-0.23117	-0.024414	0.009308	0.029144	-0.012207	0.14603	-0.004883	0.060577	-0.12085	-0.11246	0.024261	0.26199	-0.16586	-0.16037	-0.019989	-0.052643	-0.017548	0.8725	0.020447	0.020142	0.088959	0.087585	-0.021515	-0.008698	0.004425	-0.31647	-0.003204	-0.23422	-0.056458	-0.001526	-0.001373
55.188	-0.01297	-0.19867	-0.064545	-0.00061	0.012512	0.032654	0.22034	-0.002747	0.023193	-0.16159	-0.026855	0.025482	0.23911	-0.032806	-0.067749	-0.015106	-0.043182	-0.062408	0.88074	-0.095978	0.026093	0.079498	-0.007019	0.032349	0.013123	-0.011749	-0.32715	-0.000458	0.42465	-0.039215	-0.002289	0.002289
55.189	-0.018005	-0.19806	0.001221	-0.008392	-0.008545	0.051727	0.28885	0.002747	0.098419	-0.16449	-0.043335	0.012207	0.10132	-0.037689	-0.003662	0.011902	0.069122	-0.009308	0.98999	-0.18005	0.04715	0.065918	-0.014343	0.005341	0.009766	-0.014343	-0.21622	0.000305	0.61783	-0.086517	-0.002899	0.005341
55.19	0.000305	-0.2327	0.14313	0.001221	-0.018158	0.061493	0.24674	0.001068	0.1236	-0.10101	0.092773	0.015259	-0.32333	-0.014343	0.08728	-0.015564	0.1033	-0.012665	1.165	-0.23361	0.063324	0.059509	0.01358	0.025635	0.026398	-0.01236	0.2562	-0.005646	0.024872	-0.12573	-0.006866	0.019379
55.191	-0.003052	-0.24887	0.18127	0.018768	0.001526	0.020752	0.2211	-0.007935	0.093231	-0.033264	0.16373	0.017548	-0.22247	0.023346	0.15793	-0.00473	0.090942	-0.0177	1.1844	-0.25879	0.069733	0.071869	0.010986	0.009613	0.00946	-0.02655	0.52261	-0.002899	-0.29724	0.032501	-0.003662	0.045471
55.192	0.000305	-0.25726	0.09964	-0.002136	0.019836	0.031281	0.31265	-0.00824	0.065765	-0.030365	0.18036	0.014801	-0.12085	-0.005493	0.088043	-0.021057	0.045319	0.005341	1.0939	-0.20325	-0.009613	0.053101	0.035706	-0.019226	0.007172	-0.0383	0.45929	-0.007629	-0.23102	0.17792	-0.001526	0.050049
55.193	-0.010223	-0.25177	0.083466	-0.014648	0.027008	0.02533	0.31418	-0.004272	0.029907	-0.04425	0.071259	0.021973	0.015564	-0.031281	-0.14984	-0.010071	0.001221	0.005951	0.98785	-0.18463	-0.023193	0.030518	0.054321	-0.09613	0.012817	-0.031738	0.16861	-0.005646	-0.28427	0.10925	-0.00351	0.065002
55.194	-0.01297	-0.21713	0.11139	-0.004425	0.019531	0.040131	0.2977	-0.006866	0.007477	-0.027313	0.013733	0.027008	0.001984	-0.024719	-0.20905	0.000916	-0.025024	0.001984	0.83542	-0.11337	-0.021057	0.056305	0.020294	-0.11261	0.001831	-0.015106	0.041809	-0.000458	-0.33371	0.068054	-0.009766	0.040131
55.195	-0.00473	-0.24887	0.00351	0.005341	0.034027	-0.012665	0.27741	-0.002289	0.004425	0.005341	-0.001984	0.033264	0.02655	0.045929	0.028381	0	-0.042267	-0.053253	0.79636	0.031281	-0.038605	0.058899	0.04776	-0.090027	0.013428	-0.024719	-0.058746	-0.000916	-0.2861	0.088501	-0.003357	-0.057678
55.196	-0.006714	-0.21927	0.043945	0.003967	0.034943	-0.019379	0.31403	0.003662	-0.00824	0.011597	-0.019836	-0.006561	-0.041504	0.097046	0.020905	0.011292	-0.045013	-0.081787	0.64926	0.19791	-0.028992	0.04425	0.047455	-0.083008	0.024261	-0.029144	-0.17914	-0.001068	-0.22797	0.001068	-0.00351	-0.14618
55.197	-0.010986	-0.21164	0.11292	0.022125	0.024414	-0.005035	0.33768	0.009003	0.059662	0.019226	-0.025177	-0.069733	-0.013123	0.056	0.019073	0.006256	-0.069122	-0.064087	0.60989	0.34821	-0.02182	0.040894	0.13062	-0.078583	-0.007019	-0.032196	0.006561	-0.002899	0.064697	0.005188	-0.008087	-0.18814
55.198	-0.005188	-0.17807	0.083466	0.006256	0.042419	-0.019989	0.31158	0.006104	0.1561	0.0177	0.031891	-0.011749	0.016327	-0.064392	0.084686	0.01358	-0.089874	-0.070343	0.52368	0.37354	0.00061	0.02594	0.18768	-0.059357	-0.023651	-0.045319	-0.009918	0.000458	0.22553	0.049438	-0.00351	-0.22079
55.199	-0.003967	-0.14114	0.070343	-0.001831	0.041809	-0.044098	0.3009	0.006714	0.13397	0.021515	-0.002747	-0.001373	0.052185	-0.15869	0.14008	0.023346	-0.076904	-0.063782	0.76035	0.19775	-0.012512	0.002136	0.25559	-0.12589	-0.041656	-0.068359	0.37384	0.00061	0.077209	0.10254	0.00061	-0.27771
55.2	-0.006714	-0.10178	0.066223	-0.004578	0.040283	-0.10635	0.37933	0.007324	0.14236	0.016632	-0.064697	-0.006866	0.19302	-0.046997	0.18845	0.011597	-0.066528	-0.010529	1.5311	-0.024872	-0.002136	-0.013123	0.18829	-0.11704	-0.040588	-0.061951	0.30685	-0.009308	0.27649	0.023651	-0.00351	-0.27115
55.201	-0.004578	-0.12741	0.028076	0.027466	0.029602	-0.076447	0.42801	0.005951	0.023804	-0.003204	-0.006561	-0.008698	0.31464	0.003204	0.089569	0.00351	-0.064697	0.00885	1.1522	-0.070648	-0.018311	-0.037537	0.006256	-0.12741	-0.042114	-0.063171	0.08255	-0.000305	0.20355	0.012665	-0.003357	-0.21225
55.202	-0.006104	-0.10071	0.068665	0.011292	0.034485	-0.068054	0.47989	-0.009308	-0.017242	-0.04303	0.03418	-0.013428	0.22247	-0.010986	0.021667	-0.001373	-0.068665	-0.076447	0.62378	-0.086823	-0.016174	-0.024567	-0.058441	-0.089264	-0.02121	-0.059204	-0.12985	-0.001526	0.18845	-0.031128	-0.002899	-0.16144
